<mxfile host="app.diagrams.net" modified="2020-09-30T21:06:53.635Z" agent="5.0 (Windows)" etag="CUGktDdCWe76hb5x66Bf" version="13.7.7" type="github">
  <diagram id="twoQJrDORvGiON3TNo8H" name="Page-1">
    <mxGraphModel dx="1021" dy="1492" grid="1" gridSize="10" guides="1" tooltips="1" connect="1" arrows="1" fold="1" page="1" pageScale="1" pageWidth="827" pageHeight="1169" math="0" shadow="0">
      <root>
        <mxCell id="0" />
        <mxCell id="1" parent="0" />
        <mxCell id="9aRCrfbuCrH0pqJFe89C-19" style="edgeStyle=orthogonalEdgeStyle;rounded=0;orthogonalLoop=1;jettySize=auto;html=1;" edge="1" parent="1" source="9aRCrfbuCrH0pqJFe89C-11" target="9aRCrfbuCrH0pqJFe89C-1">
          <mxGeometry relative="1" as="geometry" />
        </mxCell>
        <mxCell id="9aRCrfbuCrH0pqJFe89C-33" value="" style="group" vertex="1" connectable="0" parent="1">
          <mxGeometry x="70" y="210" width="220" height="170" as="geometry" />
        </mxCell>
        <mxCell id="9aRCrfbuCrH0pqJFe89C-18" value="" style="group" vertex="1" connectable="0" parent="9aRCrfbuCrH0pqJFe89C-33">
          <mxGeometry width="220" height="170" as="geometry" />
        </mxCell>
        <mxCell id="9aRCrfbuCrH0pqJFe89C-1" value="" style="rounded=0;whiteSpace=wrap;html=1;" vertex="1" parent="9aRCrfbuCrH0pqJFe89C-18">
          <mxGeometry width="220" height="170" as="geometry" />
        </mxCell>
        <mxCell id="9aRCrfbuCrH0pqJFe89C-2" value="/u/login" style="text;html=1;strokeColor=none;fillColor=none;align=left;verticalAlign=middle;whiteSpace=wrap;rounded=0;" vertex="1" parent="9aRCrfbuCrH0pqJFe89C-18">
          <mxGeometry x="10" y="10" width="40" height="20" as="geometry" />
        </mxCell>
        <mxCell id="9aRCrfbuCrH0pqJFe89C-4" value="********" style="strokeWidth=1;shadow=0;dashed=0;align=center;html=1;shape=mxgraph.mockup.forms.pwField;strokeColor=#999999;mainText=;align=left;fontColor=#666666;fontSize=17;spacingLeft=3;" vertex="1" parent="9aRCrfbuCrH0pqJFe89C-18">
          <mxGeometry x="40" y="90" width="150" height="30" as="geometry" />
        </mxCell>
        <mxCell id="9aRCrfbuCrH0pqJFe89C-9" value="login" style="strokeWidth=1;shadow=0;dashed=0;align=center;html=1;shape=mxgraph.mockup.buttons.button;strokeColor=#666666;fontColor=#ffffff;mainText=;buttonStyle=round;fontSize=17;fontStyle=1;fillColor=#008cff;whiteSpace=wrap;" vertex="1" parent="9aRCrfbuCrH0pqJFe89C-18">
          <mxGeometry x="85" y="130" width="60" height="30" as="geometry" />
        </mxCell>
        <mxCell id="9aRCrfbuCrH0pqJFe89C-10" value="User" style="strokeWidth=1;shadow=0;dashed=0;align=center;html=1;shape=mxgraph.mockup.forms.pwField;strokeColor=#999999;mainText=;align=left;fontColor=#666666;fontSize=17;spacingLeft=3;" vertex="1" parent="9aRCrfbuCrH0pqJFe89C-18">
          <mxGeometry x="40" y="50" width="150" height="30" as="geometry" />
        </mxCell>
        <mxCell id="9aRCrfbuCrH0pqJFe89C-31" value="Login" style="text;html=1;strokeColor=none;fillColor=none;align=right;verticalAlign=middle;whiteSpace=wrap;rounded=0;" vertex="1" parent="9aRCrfbuCrH0pqJFe89C-18">
          <mxGeometry x="170" y="10" width="40" height="20" as="geometry" />
        </mxCell>
        <mxCell id="9aRCrfbuCrH0pqJFe89C-35" value="" style="group" vertex="1" connectable="0" parent="1">
          <mxGeometry x="70" y="420" width="220" height="230" as="geometry" />
        </mxCell>
        <mxCell id="9aRCrfbuCrH0pqJFe89C-17" value="" style="group" vertex="1" connectable="0" parent="9aRCrfbuCrH0pqJFe89C-35">
          <mxGeometry width="220" height="230" as="geometry" />
        </mxCell>
        <mxCell id="9aRCrfbuCrH0pqJFe89C-11" value="" style="rounded=0;whiteSpace=wrap;html=1;" vertex="1" parent="9aRCrfbuCrH0pqJFe89C-17">
          <mxGeometry width="220" height="230" as="geometry" />
        </mxCell>
        <mxCell id="9aRCrfbuCrH0pqJFe89C-12" value="/u/register" style="text;html=1;strokeColor=none;fillColor=none;align=left;verticalAlign=middle;whiteSpace=wrap;rounded=0;" vertex="1" parent="9aRCrfbuCrH0pqJFe89C-17">
          <mxGeometry x="10" y="10" width="60" height="20" as="geometry" />
        </mxCell>
        <mxCell id="9aRCrfbuCrH0pqJFe89C-13" value="********" style="strokeWidth=1;shadow=0;dashed=0;align=center;html=1;shape=mxgraph.mockup.forms.pwField;strokeColor=#999999;mainText=;align=left;fontColor=#666666;fontSize=17;spacingLeft=3;" vertex="1" parent="9aRCrfbuCrH0pqJFe89C-17">
          <mxGeometry x="40" y="90" width="150" height="30" as="geometry" />
        </mxCell>
        <mxCell id="9aRCrfbuCrH0pqJFe89C-14" value="register" style="strokeWidth=1;shadow=0;dashed=0;align=center;html=1;shape=mxgraph.mockup.buttons.button;strokeColor=#666666;fontColor=#ffffff;mainText=;buttonStyle=round;fontSize=17;fontStyle=1;fillColor=#008cff;whiteSpace=wrap;" vertex="1" parent="9aRCrfbuCrH0pqJFe89C-17">
          <mxGeometry x="61" y="170" width="85" height="30" as="geometry" />
        </mxCell>
        <mxCell id="9aRCrfbuCrH0pqJFe89C-15" value="User" style="strokeWidth=1;shadow=0;dashed=0;align=center;html=1;shape=mxgraph.mockup.forms.pwField;strokeColor=#999999;mainText=;align=left;fontColor=#666666;fontSize=17;spacingLeft=3;" vertex="1" parent="9aRCrfbuCrH0pqJFe89C-17">
          <mxGeometry x="40" y="50" width="150" height="30" as="geometry" />
        </mxCell>
        <mxCell id="9aRCrfbuCrH0pqJFe89C-16" value="etc" style="strokeWidth=1;shadow=0;dashed=0;align=center;html=1;shape=mxgraph.mockup.forms.pwField;strokeColor=#999999;mainText=;align=left;fontColor=#666666;fontSize=17;spacingLeft=3;" vertex="1" parent="9aRCrfbuCrH0pqJFe89C-17">
          <mxGeometry x="40" y="130" width="150" height="30" as="geometry" />
        </mxCell>
        <mxCell id="9aRCrfbuCrH0pqJFe89C-34" value="&lt;div align=&quot;right&quot;&gt;Register&lt;/div&gt;" style="text;html=1;strokeColor=none;fillColor=none;align=right;verticalAlign=middle;whiteSpace=wrap;rounded=0;" vertex="1" parent="9aRCrfbuCrH0pqJFe89C-17">
          <mxGeometry x="170" y="10" width="40" height="20" as="geometry" />
        </mxCell>
        <mxCell id="9aRCrfbuCrH0pqJFe89C-44" value="" style="group" vertex="1" connectable="0" parent="1">
          <mxGeometry x="430" y="155" width="310" height="280" as="geometry" />
        </mxCell>
        <mxCell id="9aRCrfbuCrH0pqJFe89C-29" value="" style="rounded=0;whiteSpace=wrap;html=1;align=left;" vertex="1" parent="9aRCrfbuCrH0pqJFe89C-44">
          <mxGeometry width="310" height="280" as="geometry" />
        </mxCell>
        <mxCell id="9aRCrfbuCrH0pqJFe89C-20" value="" style="verticalLabelPosition=bottom;shadow=0;dashed=0;align=center;html=1;verticalAlign=top;strokeWidth=1;shape=mxgraph.mockup.graphics.simpleIcon;strokeColor=#999999;fillColor=#ffffff;" vertex="1" parent="9aRCrfbuCrH0pqJFe89C-44">
          <mxGeometry x="55" y="55" width="50" height="50" as="geometry" />
        </mxCell>
        <mxCell id="9aRCrfbuCrH0pqJFe89C-21" value="" style="verticalLabelPosition=bottom;shadow=0;dashed=0;align=center;html=1;verticalAlign=top;strokeWidth=1;shape=mxgraph.mockup.graphics.simpleIcon;strokeColor=#999999;fillColor=#ffffff;" vertex="1" parent="9aRCrfbuCrH0pqJFe89C-44">
          <mxGeometry x="130" y="55" width="50" height="50" as="geometry" />
        </mxCell>
        <mxCell id="9aRCrfbuCrH0pqJFe89C-22" value="" style="verticalLabelPosition=bottom;shadow=0;dashed=0;align=center;html=1;verticalAlign=top;strokeWidth=1;shape=mxgraph.mockup.graphics.simpleIcon;strokeColor=#999999;fillColor=#ffffff;" vertex="1" parent="9aRCrfbuCrH0pqJFe89C-44">
          <mxGeometry x="205" y="55" width="50" height="50" as="geometry" />
        </mxCell>
        <mxCell id="9aRCrfbuCrH0pqJFe89C-23" value="" style="verticalLabelPosition=bottom;shadow=0;dashed=0;align=center;html=1;verticalAlign=top;strokeWidth=1;shape=mxgraph.mockup.graphics.simpleIcon;strokeColor=#999999;fillColor=#ffffff;" vertex="1" parent="9aRCrfbuCrH0pqJFe89C-44">
          <mxGeometry x="55" y="130" width="50" height="50" as="geometry" />
        </mxCell>
        <mxCell id="9aRCrfbuCrH0pqJFe89C-24" value="" style="verticalLabelPosition=bottom;shadow=0;dashed=0;align=center;html=1;verticalAlign=top;strokeWidth=1;shape=mxgraph.mockup.graphics.simpleIcon;strokeColor=#999999;fillColor=#ffffff;" vertex="1" parent="9aRCrfbuCrH0pqJFe89C-44">
          <mxGeometry x="130" y="130" width="50" height="50" as="geometry" />
        </mxCell>
        <mxCell id="9aRCrfbuCrH0pqJFe89C-25" value="" style="verticalLabelPosition=bottom;shadow=0;dashed=0;align=center;html=1;verticalAlign=top;strokeWidth=1;shape=mxgraph.mockup.graphics.simpleIcon;strokeColor=#999999;fillColor=#ffffff;" vertex="1" parent="9aRCrfbuCrH0pqJFe89C-44">
          <mxGeometry x="205" y="130" width="50" height="50" as="geometry" />
        </mxCell>
        <mxCell id="9aRCrfbuCrH0pqJFe89C-26" value="" style="verticalLabelPosition=bottom;shadow=0;dashed=0;align=center;html=1;verticalAlign=top;strokeWidth=1;shape=mxgraph.mockup.graphics.simpleIcon;strokeColor=#999999;fillColor=#ffffff;" vertex="1" parent="9aRCrfbuCrH0pqJFe89C-44">
          <mxGeometry x="55" y="205" width="50" height="50" as="geometry" />
        </mxCell>
        <mxCell id="9aRCrfbuCrH0pqJFe89C-27" value="" style="verticalLabelPosition=bottom;shadow=0;dashed=0;align=center;html=1;verticalAlign=top;strokeWidth=1;shape=mxgraph.mockup.graphics.simpleIcon;strokeColor=#999999;fillColor=#ffffff;" vertex="1" parent="9aRCrfbuCrH0pqJFe89C-44">
          <mxGeometry x="130" y="205" width="50" height="50" as="geometry" />
        </mxCell>
        <mxCell id="9aRCrfbuCrH0pqJFe89C-28" value="" style="verticalLabelPosition=bottom;shadow=0;dashed=0;align=center;html=1;verticalAlign=top;strokeWidth=1;shape=mxgraph.mockup.graphics.simpleIcon;strokeColor=#999999;fillColor=#ffffff;" vertex="1" parent="9aRCrfbuCrH0pqJFe89C-44">
          <mxGeometry x="205" y="205" width="50" height="50" as="geometry" />
        </mxCell>
        <mxCell id="9aRCrfbuCrH0pqJFe89C-30" value="/w/" style="text;html=1;strokeColor=none;fillColor=none;align=left;verticalAlign=middle;whiteSpace=wrap;rounded=0;" vertex="1" parent="9aRCrfbuCrH0pqJFe89C-44">
          <mxGeometry x="20" y="10" width="85" height="20" as="geometry" />
        </mxCell>
        <mxCell id="9aRCrfbuCrH0pqJFe89C-36" value="&lt;div&gt;Container grid&lt;br&gt;&lt;/div&gt;" style="text;html=1;strokeColor=none;fillColor=none;align=right;verticalAlign=middle;whiteSpace=wrap;rounded=0;" vertex="1" parent="9aRCrfbuCrH0pqJFe89C-44">
          <mxGeometry x="185" y="10" width="115" height="20" as="geometry" />
        </mxCell>
        <mxCell id="9aRCrfbuCrH0pqJFe89C-45" style="edgeStyle=orthogonalEdgeStyle;rounded=0;orthogonalLoop=1;jettySize=auto;html=1;" edge="1" parent="1" source="9aRCrfbuCrH0pqJFe89C-1" target="9aRCrfbuCrH0pqJFe89C-29">
          <mxGeometry relative="1" as="geometry" />
        </mxCell>
        <mxCell id="9aRCrfbuCrH0pqJFe89C-49" value="" style="group" vertex="1" connectable="0" parent="1">
          <mxGeometry x="410" y="570" width="310" height="310" as="geometry" />
        </mxCell>
        <mxCell id="9aRCrfbuCrH0pqJFe89C-46" value="" style="rounded=0;whiteSpace=wrap;html=1;align=left;" vertex="1" parent="9aRCrfbuCrH0pqJFe89C-49">
          <mxGeometry width="310" height="310" as="geometry" />
        </mxCell>
        <mxCell id="9aRCrfbuCrH0pqJFe89C-47" value="/c/item/list/" style="text;html=1;strokeColor=none;fillColor=none;align=left;verticalAlign=middle;whiteSpace=wrap;rounded=0;" vertex="1" parent="9aRCrfbuCrH0pqJFe89C-49">
          <mxGeometry x="20" y="10" width="85" height="20" as="geometry" />
        </mxCell>
        <mxCell id="9aRCrfbuCrH0pqJFe89C-48" value="&lt;div&gt;Container grid&lt;br&gt;&lt;/div&gt;" style="text;html=1;strokeColor=none;fillColor=none;align=right;verticalAlign=middle;whiteSpace=wrap;rounded=0;" vertex="1" parent="9aRCrfbuCrH0pqJFe89C-49">
          <mxGeometry x="185" y="10" width="115" height="20" as="geometry" />
        </mxCell>
      </root>
    </mxGraphModel>
  </diagram>
</mxfile>
